<?xml version="1.0" encoding="utf-8"?>
<!-- Generator: Adobe Illustrator 23.0.3, SVG Export Plug-In . SVG Version: 6.00 Build 0)  -->
<svg version="1.1" id="Layer_1" xmlns="http://www.w3.org/2000/svg" xmlns:xlink="http://www.w3.org/1999/xlink" x="0px" y="0px"
	 viewBox="0 0 556.3 418" style="enable-background:new 0 0 556.3 418;" xml:space="preserve">
<style type="text/css">
	.st0{fill:#C7CCD1;}
	.st1{fill:#ECECEC;}
	.st2{opacity:0.3;fill:#FAFAFA;enable-background:new    ;}
	.st3{opacity:0.4;enable-background:new    ;}
	.st4{fill:#C8C8C8;}
	.st5{opacity:0.4;}
	.st6{fill:#FFFFFF;}
	.st7{fill:#413B89;}
	.st8{fill:#201851;}
	.st9{fill:none;stroke:#000000;stroke-width:0.67;stroke-linecap:round;stroke-miterlimit:10;}
	.st10{fill:none;stroke:#000000;stroke-width:0.53;stroke-linecap:round;stroke-miterlimit:10;}
	.st11{fill:url(#SVGID_1_);}
	.st12{fill:#F25662;}
	.st13{fill:#A43447;}
	.st14{fill:#403881;}
	.st15{fill:#1E194F;}
	.st16{fill:#F49C80;}
	.st17{fill:#D07A62;}
	.st18{fill:#F59D80;}
	.st19{fill:#403880;}
	.st20{fill:#CD3650;}
	.st21{fill:#FCA080;}
	.st22{fill:#DFE5ED;}
	.st23{fill:#232059;}
	.st24{fill:#FFC761;}
	.st25{fill:#D07E2C;}
	.st26{fill:#1150BD;}
	.st27{fill:#094080;}
	.st28{fill:url(#SVGID_2_);}
	.st29{fill:url(#SVGID_3_);}
	.st30{fill:#1351BD;}
	.st31{fill:url(#SVGID_4_);}
	.st32{fill:url(#SVGID_5_);}
	.st33{fill:url(#SVGID_6_);}
	.st34{fill:url(#SVGID_7_);}
	.st35{fill:#403882;}
	.st36{fill:none;stroke:#F59059;stroke-width:0.98;stroke-miterlimit:10;}
	.st37{opacity:0.5;fill:#201851;enable-background:new    ;}
	.st38{fill:none;stroke:#000000;stroke-width:0.66;stroke-miterlimit:10;}
	.st39{opacity:0.35;fill:#042942;enable-background:new    ;}
	.st40{fill:url(#SVGID_8_);}
	.st41{fill:none;}
	.st42{fill:url(#SVGID_9_);}
</style>
<g>
	<g>
		<g id="Layer_1-2">
			<ellipse id="shadow" class="st0" cx="264.2" cy="411.2" rx="215.1" ry="6.8"/>
			<g id="window">
				<rect x="433.5" y="36.6" class="st1" width="91.8" height="219.4"/>
				<polygon class="st2" points="499.9,36.6 470.6,36.6 438.6,256 467.8,256 				"/>
				<rect x="432.9" y="33.8" class="st3" width="93.3" height="3"/>
				<rect x="432.9" y="255.8" class="st3" width="93.3" height="3.8"/>
				<path class="st4" d="M529.9,264.4H428.7v-236h101.2V264.4z M436.4,258.9h85.8V33.8h-85.8V258.9z"/>
				<rect x="327.9" y="36.6" class="st1" width="91.8" height="219.4"/>
				<polygon class="st2" points="406,36.6 400.6,36.6 368.6,256 374,256 				"/>
				<rect x="327.3" y="33.8" class="st3" width="93.3" height="3"/>
				<rect x="327.3" y="255.8" class="st3" width="93.3" height="3.8"/>
				<path class="st4" d="M424.2,264.4H323.1v-236h101.1V264.4z M330.8,258.9h85.8V33.8h-85.8V258.9z"/>
				<polygon class="st2" points="331.7,255.8 373.6,36.8 396.1,36.8 360,255.8 				"/>
				<rect x="221.4" y="36.6" class="st1" width="91.8" height="219.4"/>
				<polygon class="st2" points="299.5,36.6 294.2,36.6 262.1,256 267.5,256 				"/>
				<rect x="220.8" y="33.8" class="st3" width="93.3" height="3"/>
				<rect x="220.8" y="255.8" class="st3" width="93.3" height="3.8"/>
				<path class="st4" d="M317.8,264.4H216.6v-236h101.2V264.4z M224.3,258.9h85.8V33.8h-85.8V258.9z"/>
				<polygon class="st2" points="225.2,255.8 267.2,36.8 289.7,36.8 253.5,255.8 				"/>
			</g>
			<g id="frame">
				<g class="st5">
					<rect x="102.8" y="81.6" width="57.1" height="75.8"/>
				</g>
				<rect x="104.3" y="80" class="st4" width="57.1" height="75.8"/>
				<rect x="107.7" y="82.7" class="st6" width="49.9" height="69.2"/>
				<polygon class="st4" points="148.9,94.9 115.8,93.7 115.8,140.8 148.9,140.8 				"/>
				<g class="st5">
					<polygon points="115.8,140.8 148.9,116.6 115.8,93.7 					"/>
				</g>
			</g>
			<g id="plant_1">
				<path class="st7" d="M58.1,275.4c0,0,13.4-18.6,15.4-27.6c2-9,0.4-11,0.4-11s8.1-21.4,7.7-22.8s-2.1-2.9-3.5-2.6
					s-41.8,23.9-41,35.2C37.9,257.9,47,274.7,58.1,275.4z"/>
				<path class="st8" d="M74,236.8c0,0,8.1-21.4,7.7-22.8s-2.1-2.9-3.5-2.6c0,0-1.1,0.6-4.8,18s-15.1,46-15.1,46
					s13.4-18.6,15.4-27.6C75.7,238.8,74,236.8,74,236.8z"/>
				<path class="st9" d="M71.1,238.2c0,0-8.4,24.9-12.9,37.2S41,346.3,44.8,357.8"/>
				<path class="st10" d="M55.7,200.4c0,0-5.7,25.1-7.3,45.4s-6.1,97.4-6.1,97.4"/>
				<path class="st8" d="M56.1,201.9c0,0,5.8,13.6,9.5,12.6s6.5-7.6,8.9-14.1s9.3-44.4,9.6-46s-9.4-21.3-9.4-21.3
					S50.1,184.5,56.1,201.9z"/>
				<path class="st7" d="M75,133.4c0,0,1.1,7.3,0.6,9.3s-15.2,26.1-16.7,39.2s-2.8,18.8-2.8,18.8s-9,6.8-12.5,6s-10-13.3-8.4-16.9
					s28.1-50,28.9-49.8s1.9,5.4,1.9,5.4l0.5-7.8L75,133.4z"/>
				<path class="st7" d="M31.7,246.3c2.2-2.4,5.5-3.4,8.7-2.8c5.5,1,12.7-5,12.5-10.2s-6.9-21.6-14.6-25.2s-27.1-18.6-27.1-18.6v2.8
					L8.3,188L0,185.2c0,0,3.4,29.6,11.5,40.6C19.6,237,31.7,246.3,31.7,246.3z"/>
				<path class="st8" d="M11.2,225.6c8.1,11,20.2,20.4,20.2,20.4S3.8,208.1,0.1,187.7C1.1,195.3,4.6,216.6,11.2,225.6z"/>
				<path class="st10" d="M24.7,236.4c0,0,3.9,5.3,6.7,9.6s11.1,85,9.6,99.8"/>
				
					<linearGradient id="SVGID_1_" gradientUnits="userSpaceOnUse" x1="98.6769" y1="383.1312" x2="15.7169" y2="484.8712" gradientTransform="matrix(1 0 0 1 0 -94)">
					<stop  offset="5.000000e-02" style="stop-color:#FAD05B"/>
					<stop  offset="1" style="stop-color:#F8A35A"/>
				</linearGradient>
				<path class="st11" d="M58,297.3H31.9c0,0-21.1,58.2-17.5,77.5s7.6,25.8,7.6,25.8h45.9c0,0,3.9-6.5,7.6-25.8S58,297.3,58,297.3z"
					/>
				<path class="st8" d="M22.4,326.8c-1.8,6.1-3.5,12.5-4.9,18.8h55c-1.4-6.3-3.1-12.7-4.9-18.8H22.4z"/>
				<path class="st8" d="M17,386.1c0.7,2.8,1.4,5.1,2,7h51.9c0.6-1.9,1.3-4.3,2.1-7H17z"/>
			</g>
			<g id="chairs">
				<path class="st12" d="M380.6,278.9h65.5c5.3,0,9.7,4.3,9.7,9.7l0,0c0,5.3-4.3,9.7-9.7,9.7h-65.5c-5.3,0-9.7-4.3-9.7-9.7l0,0
					C371,283.3,375.3,278.9,380.6,278.9z"/>
				<path class="st13" d="M445.7,278.9h-64.6c-0.4,0-0.7,0-1.1,0.1c-2.9,1-4.7,2.2-5,3.5l-1-0.4c-1.6,1.8-2.5,4.1-2.5,6.5l0,0
					c0,5.3,4.3,9.7,9.7,9.7h9.5L388,289c8.3,1.4,16.6,2.1,25,2c21,0,38-3.6,38-8C451,281.5,449,280.1,445.7,278.9z"/>
				<path d="M413.4,412.1L413.4,412.1c-1.2,0-2.2-1-2.2-2.1l-1.4-111.7h7.1L415.5,410C415.5,411.2,414.6,412.1,413.4,412.1z"/>
				<path d="M469.3,412.1L469.3,412.1c-1,0-1.8-0.6-2.1-1.6l-32.8-112.2h7.4l29.5,111.1c0.3,1.2-0.4,2.4-1.6,2.7
					C469.7,412.1,469.5,412.1,469.3,412.1z"/>
				<path d="M357.4,412.1L357.4,412.1c1,0,1.8-0.6,2.1-1.6l32.8-112.2h-7.4l-29.5,111.1c-0.3,1.2,0.4,2.3,1.5,2.7
					C357,412.1,357.2,412.1,357.4,412.1z"/>
				<path class="st12" d="M148.4,298.3H82.9c-5.3,0-9.7-4.3-9.7-9.7l0,0c0-5.3,4.3-9.7,9.7-9.7h65.5c5.3,0,9.7,4.3,9.7,9.7l0,0
					C158.1,294,153.7,298.3,148.4,298.3z"/>
				<path class="st13" d="M83.3,278.9h64.6c0.4,0,0.7,0,1.1,0.1c2.9,1,4.7,2.2,5,3.5l1-0.4c1.6,1.8,2.5,4.1,2.5,6.5l0,0
					c0,5.3-4.3,9.7-9.7,9.7h-9.5l2.7-9.3c-6.7,1.2-15.4,0.7-25,0.7c-21,0-37.5,0.5-38-6.6C78,281.5,80,280.1,83.3,278.9z"/>
				<path d="M115.7,412.1L115.7,412.1c1.2,0,2.2-1,2.2-2.1l1.4-111.7h-7.2l1.4,111.7C113.5,411.2,114.5,412.1,115.7,412.1
					C115.6,412.1,115.6,412.1,115.7,412.1z"/>
				<path d="M59.7,412.1L59.7,412.1c1,0,1.8-0.6,2.1-1.6l32.8-112.2h-7.5L57.6,409.4c-0.3,1.2,0.4,2.4,1.6,2.7
					C59.3,412.1,59.5,412.1,59.7,412.1z"/>
				<path d="M171.6,412.1L171.6,412.1c-1,0-1.8-0.6-2.1-1.6l-32.8-112.2h7.4l29.5,111.1c0.3,1.2-0.4,2.3-1.5,2.7
					C172,412.1,171.8,412.1,171.6,412.1z"/>
			</g>
			<g id="lady">
				<g id="head">
					<path class="st14" d="M175,129.1c-4.8-3.3-10.8-3.9-16.2-1.8c-9.5,3.6-11.7,22.2-16.2,24.9s-9.9,3.5-10.5,8.4
						s5.7,11.5,5.7,11.5s23.5,6.1,28.5-4.1C171.3,157.8,175,129.1,175,129.1z"/>
					<path class="st15" d="M166.4,168.1c5-10.2,8.6-38.9,8.6-38.9c-7.2-1.1-14,0.9-17.5,11.3s-9.1,12-18.6,17.5
						c-3.9,2.2-5.3,5.2-5.6,7.8c1.2,2.3,2.8,4.5,4.6,6.4C137.9,172.2,161.3,178.3,166.4,168.1z"/>
					<path class="st16" d="M193.6,142.7c0,0-2.7,27.3-6.6,29.6s-10.6-0.6-10.6-0.6c-2.3,3.2-4.4,6.6-6.2,10.1
						c-2.5,5-2.5,14.4-5.3,15.3s-16-22.7-9.1-29.2c4.7-4.4,9.3-8.9,9.3-8.9s-2.3-1-2.1-4.7S169.4,137.5,193.6,142.7z"/>
					<path class="st12" d="M176.7,129.7c0,0-3.6-2-8.9,0.7s-7.6,9.8-6.6,11.9S176.7,129.7,176.7,129.7z"/>
					<path class="st14" d="M193.6,142.7c0,0-7.6-1-10.2,3.6s-4.5,9.2-12,7c0,0-1.3,1.9-1.7,1.4c-0.2-0.7-0.3-1.5-0.3-2.2
						c0,0-1.4-3.6-4.7-1.9c-2.7,1.4-1.5,7.7,0.3,8.4c0,0-8.6-2.4-6.8-10.8s9.1-15.7,18.4-18.5s20,6.2,18.1,11.2c0,0,1.9,1.2,1.5,2.3
						c-1,1.8-2.1,3.5-3.3,5.2L193.6,142.7z"/>
					<path class="st15" d="M193.6,142.7c0,0,1.8,0.5,1.4,1.9c-0.5,1.3-1.2,2.6-2,3.8L193.6,142.7z"/>
					<path class="st17" d="M167.1,153.1c0,0-1.4-0.7-1.8,1.3s1.1,2.3,1.1,2.3s-1.2-1.1-0.2-2S167.1,153.9,167.1,153.1z"/>
					<path class="st17" d="M176.4,171.7c-3.1-1.4-5.8-3.5-8-6c0,0,4.7,6.7,6.7,7.8L176.4,171.7z"/>
				</g>
				<g id="legs">
					<path class="st17" d="M163.7,284.5c0,0-3,17.3-0.5,31.2s12.9,55,13.3,57.9s-0.6,5.7,0,6.8s1.4,20.5,6.7,23.6s12.9-0.4,13.3-3.4
						s-9.3-17.9-11-30.7s-11.1-87.8-11.1-87.8L163.7,284.5z"/>
					<path class="st18" d="M175.8,249c0,0,17.2,0.5,19.1,8.4c1.9,7.9,1.1,102.4,1.1,102.4s7.4,21.8,10.7,27.7s-10.4,6.9-17,0
						s-9.4-17.6-9.4-17.6c0.8-3.5,1.1-7.2,1.1-10.8c-0.2-5.1-11.4-64.3-11.6-69.8c-0.1-1.6-0.1-3.2,0-4.8l-9,0.1
						C160.6,284.6,164.5,249.8,175.8,249z"/>
					<path class="st19" d="M91.4,237.5c0,0-9.3,10.4-11,15.9c-1.7,5.5-6.1,28.9,2.8,31.1s77.3,0,77.3,0s6.7-34.8,15.2-35.5
						l-39.3-5.3C136.5,243.7,108.6,238.8,91.4,237.5z"/>
					<path class="st15" d="M175.8,249l-39.3-5.3c0,0-27.9-4.9-45.1-6.2c0,0,46.6,26.7,52.6,26.2c4.9-0.4,13.9,4.7,20.2,5.7
						C167.1,259.9,171.1,249.4,175.8,249z"/>
					<path class="st17" d="M175,249.2c-10.6,2.2-14.4,35.4-14.4,35.4h3.2C163.7,284.5,168.5,251.3,175,249.2z"/>
				</g>
				<g id="body">
					<path class="st12" d="M159.8,164c-1.2-0.3-2.4-0.6-3.6-0.8c-0.6,0-4.5,4.1-4.5,4.1s-24,0.2-28.3,3.1s-15.3,19.8-15.3,19.8
						s-8.6,35.7-11.3,39.6s-5.5,7.8-5.5,7.8s28.4,2,44.4,10.3c0,0,2.7-13,5.4-16.9c2.2-2.9,4.7-5.6,7.4-8c0,0,15-1,17-4
						c1.4-2.1,2.7-3.8,2.7-3.8l21.7-6.1c0,0-7.6-21.6-10.4-24.8s-4.2-3.8-4.2-3.8c0.2-1.7,0.2-3.5,0.1-5.2c-0.2-0.4-0.5-0.8-0.8-1.1
						c0,0-4,4.4-5,6.3s-4.7,15.6-6.3,15s-5.4-12.4-5.5-19.4S158.1,165.7,159.8,164z"/>
					<path class="st20" d="M122.9,215c0.4-2.3,6.5-7.5,10.6-5.4s-4.1-3.8-3.1-7.8s1.6-7.3,1.6-7.3c-0.2,0-7.1,7.4-7.1,7.4
						s-14.1,12.8-26.6,24.2c-0.4,1.2-0.9,2.4-1.6,3.6c-2.7,3.8-5.5,7.8-5.5,7.8s24.2,1.7,40.6,8.5l1.5-8.4
						C133.5,237.6,122.5,217.3,122.9,215z"/>
					<path class="st18" d="M108.2,190.1l16.8,11.8L114.1,216c0,0,30.6,34.6,33.1,35.5s15.9,2,17,2.5s10.2,5.9,10.2,6.2
						s-1.6,1.4-2.9,1.3c-1.7-0.4-3.3-1-4.8-1.8c0,0,6.9,7.6,6.9,7.7c-0.7,0.6-1.5,1-2.4,1c-0.4,0-0.8-0.2-1.1-0.4
						c-0.5,0.2-1.1,0.4-1.7,0.4c-0.7,0-4.4-2.5-4.4-2.5l2.9,2.5c0,0-1.4,1.4-2.9,0.7s-6.9-5.1-7.4-5.2s-7.5,0.5-10.7-0.7
						s-49-32-51.4-36.4s-2.8-7.2-2-10.2S108.2,190.1,108.2,190.1z"/>
					<path class="st20" d="M183.3,191.2c-1.5,5.4-4.4,18.8-5.7,18.9c-1.6,0.2-5.2-9.4-5.2-9.4c-0.7,3.9-3.5,14.1-4,14.2l21.7-6.1
						C190.1,208.9,186.5,198.6,183.3,191.2z"/>
					<path class="st18" d="M170.2,214.5c0,0,7.3,34.6,9.5,36s8.8,2.5,10,1.9s7.2-9.4,7-15.4s-3.8-42-3.5-45.8s1-14.2,0.5-15.2
						s-6.6-3.8-6.6-3.8c-1.9,0.8-4.1,1.1-6.1,0.7c0,0-1,0.5-1,0.7s-0.8,5.5-0.2,5.9c0.4,0.2,0.8,0.3,1.2,0.3c0.3,0.8,0.9,1.6,1.7,2
						c0,0-0.5,4.1,1,5.9s0.6,6.5,0.5,8.1s-2.5,15.5-2.5,15.5L170.2,214.5z"/>
					<path class="st17" d="M181.4,211.4l-1.9,17c0,0-3.2-10.8-4.6-11.4s-4,0.3-4,0.3l-0.6-2.8L181.4,211.4z"/>
					<polygon class="st17" points="108.2,190.1 124,203.2 125,201.9 					"/>
					<path class="st20" d="M170.4,182c0,0,1.9-0.9,2.8,1.4s1.7,4.8,1.7,4.8S172.6,183.1,170.4,182z"/>
					<path class="st20" d="M175.5,180.3l-0.2,3.3l5.8,2.8C181.1,186.4,180,183.1,175.5,180.3z"/>
					<path class="st20" d="M156.9,183.2l-7.2,4.2c0,0,4,0.9,4.1,0.7S156.9,183.2,156.9,183.2z"/>
				</g>
				<g id="sandals">
					<path class="st14" d="M176.9,382.9c0,0,0.5,8.1,1.4,13.7s2,13.5,3.9,14.3s15.9,1.5,17.6,0s0.5-5.4-0.4-7s-7.3-14.3-7.3-14.3
						s4,12.5-1.9,13.3s-8.4-2.2-9.4-5.8S176.9,382.9,176.9,382.9z"/>
					<path class="st14" d="M206.6,387.5c0,0,3.7,5.9,3.8,7.6s-0.3,3.9-0.9,4.5s-12.1,2.6-16.3-0.7s-6.9-9.7-6.9-9.7
						c0,2,0,3.9-0.2,5.9c-0.2,0.2-1.2,0.4-1.6-0.2s-1.7-10.4-3-12.9s-3-8.9-1.1-13.1c0,0,8.7,19.3,15.3,21S206.1,389.2,206.6,387.5z
						"/>
					<path class="st15" d="M184.5,394.9c0.4,0.6,1.4,0.4,1.6,0.2c0.2-2,0.3-3.9,0.2-5.9c0,0,2.7,6.4,6.9,9.7s15.6,1.4,16.3,0.7
						c0.4-0.5,0.6-1.1,0.7-1.8c-2.6,0.6-10.8,2.4-14.7,0.3c-4.8-2.5-8.4-9.5-8.9-9.9s-5.5-6.5-6.6-10.8c0.3,1.6,0.8,3.1,1.5,4.5
						C182.7,384.5,184.1,394.3,184.5,394.9z"/>
					<path class="st15" d="M182.2,410.8c1.8,0.7,15.9,1.5,17.6,0c0.6-0.6,0.9-1.4,0.9-2.3c-2.6,0.6-5.3,1-8,1.1
						c-4,0.1-7.9-0.1-11.8-0.9C181.2,409.9,181.7,410.7,182.2,410.8z"/>
				</g>
			</g>
			<g id="man">
				<g id="head-2">
					<path class="st18" d="M364.5,112.1c0,0,6.5,31.7,7.2,32.5s4.6,1,6.3,0.6c1.7-0.5,3.4-1,5-1.7c0,0,3.5,11,4.6,11.6
						s7.2,3.2,12.5-0.6s8.8-15.5,8.8-15.5s-6.1-0.9-6.4-1.3s-3-4.8-3-4.8s2.1-21-3.9-24S367.5,103,364.5,112.1z"/>
					<path class="st14" d="M382.8,119.3c0,0,1.7,5.7,2.5,5.6s1.8-4.9,1.8-4.9s2-3,4.6-1.9s2.6,8.1,0.3,10.1c1.8,3.5,5,6,8.8,6.9
						c0,0,6.5-22.5,6.2-24.7s-5.1-5.6-5.1-5.6s-1.3-6.4-1.8-6.5s-1.1,1.2-1.1,1.2s-2.2-5.2-6.9-5.9c-4.7-0.7-30.6,3.4-33.5,7.9
						c0,0-0.4,12.3,6.4,13.1l-0.4-1.7c1-1.5,2.6-2.5,4.4-2.6c2.9-0.1,5.6,0.1,6,1.4s1.2,5.7,2.7,6.4
						C379.4,118.5,381.1,118.9,382.8,119.3z"/>
					<polygon class="st17" points="382.9,143.6 387.4,141.6 383.6,145.7 					"/>
					<path class="st17" d="M392,128.2c0,0-1.5,1.4-2.8,0.5c0.9,0.8,2.2,1,3.3,0.4L392,128.2z"/>
					<path class="st17" d="M389.1,121.8c0,0,0.7-0.9,1.4-0.8s1.3,2.3-0.1,3.7c0,0,0.7-2.1,0-2.5S388.3,123.1,389.1,121.8z"/>
					<path class="st15" d="M392,128.2c1.8,3.5,5,6,8.8,6.9c0,0,6.5-22.5,6.2-24.7c0,0-0.3,6.4-5.2,7.6c-3.3,0.9-6.7,0.9-10,0.1
						C394.4,119.2,394.3,126.2,392,128.2z"/>
				</g>
				<path class="st21" d="M355.1,367.8l1.3,11c0,0-15.3,11.8-17.4-2l-1.9-7L355.1,367.8z"/>
				<path class="st15" d="M356.4,378.7c0,0,2.4,18.3,2.1,18.5s-42.3-0.1-46.8-0.1c-0.2,0-0.4-0.2-0.4-0.4c-0.1-1.8-0.4-8.9,3.5-10.4
					c4.4-1.8,17.9-6.1,20.3-8.7s3-3.3,3.4-3.1s3.6,2.3,3.5,4.2s-0.1,2.9,0.5,2.8s6.9,0.3,7.8-1S356.4,378.7,356.4,378.7z"/>
				<path class="st22" d="M358.4,397.2c-0.3,0.2-42.3-0.1-46.8-0.1c-0.2,0-0.4-0.2-0.4-0.4c-0.1-1.8-0.4-8.9,3.5-10.4
					c2.1-0.9,6.5-2.4,10.6-3.9c2.2,3.6,2.1,11.8,2.1,11.8h30.9C358.5,395.1,358.5,396.2,358.4,397.2z"/>
				<path class="st21" d="M364.1,377.8l0.7,7.8c0,0,3.6,6.4,10.7,6.5s8.6-3.5,8.6-3.5v-7.4L364.1,377.8z"/>
				<path class="st19" d="M364.7,384.6c0,0,0.5-1.2,2.8-0.5s6,2.9,6.1,4s-0.5,2.6,0,2.6s4.6,0,5.5-0.9s1.5-1.8,4.8-2.2
					c0,0,1.4,11.3,1.4,13.4c0,0,0.3,3.3,0,3.4s-19.2,7.1-23.7,7.6s-18.8-1-19.1-1.7s-0.3-9.6,2.3-10.9s14-6.6,16.6-9.4
					C363,388.5,364.1,386.6,364.7,384.6z"/>
				<path class="st22" d="M385.4,404.5c-0.3,0.1-19.2,7.1-23.7,7.6s-18.8-1-19.1-1.7s-0.3-9.6,2.3-10.9c0.8-0.4,2.6-1.3,4.7-2.3
					c14.8-2.4,17.8,9.8,17.8,9.8c3-0.7,18-5.9,18-5.9S385.7,404.3,385.4,404.5z"/>
				<path class="st19" d="M446.3,238.1c0,0,11.7,38.3,1.2,45.3s-62.1,2.9-62.1,2.9s4.6,25,4.3,32.2s-5.7,62.7-5.7,62.7
					s-16,5.5-21-2.9l-11.4-98.1l-12.8,0.1c0,0,8.3,21.5,8.5,25.6s7.8,62.2,7.8,62.2s-9.7,6.9-18.1,1.6c0,0-31.8-82.4-31.9-91.1
					s-0.8-17.7,1.4-19.8s15.4-9,23.9-11.1s63-8.4,63-8.4L446.3,238.1z"/>
				<path class="st23" d="M352.3,270.7c1.3-2.1,14.1-10.8,20.2-13.6c6.1-2.8,36.3-8.9,36.3-8.9s2.9,20.5,5,21.2
					c1.7,0.6,28.8-3,37.9-4.3c-1-12.7-5.4-27-5.4-27l-52.9,1.3c0,0-54.5,6.3-63,8.4s-21.6,9-23.9,11.1s-1.6,11.1-1.4,19.8
					s32,91.1,32,91.1c8.4,5.3,18.1-1.6,18.1-1.6s-7.6-58.1-7.8-62.2s-8.5-25.6-8.5-25.6l12.8-0.1C351.7,280.3,351,272.8,352.3,270.7
					z"/>
				<g id="body-2">
					<g id="body-3">
						<polygon class="st13" points="394.8,247.5 374.9,247.1 381.7,255.9 						"/>
						<path class="st24" d="M386.4,153.2c0,0,5.1,3.2,10.4,1.8s12-15.9,12-15.9l9.8,107.1c0,0-18.2,0.3-25.6-3.2L386.4,153.2z"/>
						<path class="st25" d="M418.6,246.2l-1.1-12.6l-20.4,2.7c0,0-2.7-30-3.5-45.9s-7.2-37.2-7.2-37.2L393,243
							C400.4,246.5,418.6,246.2,418.6,246.2z"/>
						<path class="st18" d="M324,193c0,0-4.5-2.1-5.1-2.9s-2.9-9.5-3.2-10s-8.9-8.6-9.3-8.7s-1.5,2.1-1.3,3.1
							c0.7,1.9,1.6,3.7,2.5,5.4c0,0,0.3,1,0.1,1s-10.2-3.6-10.8-3.9c-3.9-0.3-7.9-0.5-11.9-0.4c-0.1,1.2,0.4,2.3,1.3,3
							c1.2,0.5,9.1,2.3,9.1,2.3s-2.5,2.2-1.7,3.6c0.4,0.8,1,1.6,1.7,2.2c0,0-1,2-0.7,2.5c0.6,0.7,1.4,1.3,2.2,1.9
							c-0.4,0.8-0.4,1.8,0,2.6c0.6,1,6.3,3.5,7,3.4c0,0,4.4,2.5,7.9,2.5c1.8,0,6.5,5.2,6.5,5.2L324,193z"/>
						<path class="st26" d="M406,138.6c0,0-3.5,35-3.5,55.4s9,70.5,11.6,71.3s44.4-2,47.2-6.7c0,0-12.8-28.1-13.1-30.7
							s-1.3-9.4-1.3-9.4s1.6-1.9,1.5-2.5s-4.4-68.1-13.2-72.4C427.9,140.2,406,138.6,406,138.6z"/>
						<path class="st26" d="M383.8,146.4c0,0,6.6,11.7,8.6,44.7s0.8,51.1,0.6,52s-9.3-2.5-9.3-2.5s2.6-3,2.6-9.6s-3.1-18.9-3.1-18.9
							s-11.9,24-14.1,24.3c-3.2,0.5-6.5,0.3-9.7-0.5c-3.5-1.1-42.9-29-42.9-29L324,193l36,15.4c0,0,7.9-52.1,10.2-54.5
							S383.8,146.4,383.8,146.4z"/>
						<polygon class="st27" points="383.2,212.1 374.9,180.5 376.9,224.4 						"/>
						<path class="st27" d="M409.7,142.4c0,0,5.3,20.6,5.3,21.7s-9.7,26.1-9.7,26.1s11-23.5,11-24.5S409.7,142.4,409.7,142.4z"/>
						<path class="st27" d="M382.9,150.2c0.1,0.3-0.6,23.6-0.2,24.8s8,15.4,8,15.4s-9.2-12.6-9.1-14.5L382.9,150.2z"/>
						<path class="st27" d="M448.1,228c-0.3-2.6-1.3-9.4-1.3-9.4s-4.9,5.8-5.6,6.4s-33.1,16.7-33.1,16.7c0.7,3.7,1.4,7.2,2,10.4
							c8.3-2.9,32.5-11.5,41.5-14.8C450.2,234.2,449.1,231.2,448.1,228z"/>
						<path class="st27" d="M405,221.6l19.7-14.2l5.3-1.6l-5.7-0.9l-4.1-28.2c0,0,0.2,28.6,0,29S405,221.6,405,221.6z"/>
						<path class="st18" d="M387.9,234.3l-15.4,4.2l6.9,13.9c0,0,4.8-3.2,7-4.9c1.8-1.1,3.7-2,5.7-2.5L387.9,234.3z"/>
						<path class="st26" d="M408.1,241.7l-15.4,6.1c0,0-5.2-13-5.1-15.4l17.4-10.8C405,221.6,410.7,238,408.1,241.7z"/>
						<path class="st17" d="M307.7,183.2c0,0-0.9,6.4,1.6,8.6l-3.1-2.1c-0.2,0.7-0.4,1.3-0.6,2c0,0.3,0.4,1.5,0.2,1.9
							c0,0,1.4,2.3,0.2,3.6c0,0,0.7-2.3-0.8-2.8c0,0,0-2-0.9-2.7c0.3-0.9,0.4-1.9,0.5-2.8c-0.2-0.3-6.2-4.7-6.2-4.7s5.8,2.8,6.3,2.6
							C305.9,185.7,306.8,184.5,307.7,183.2z"/>
					</g>
					<polygon class="st12" points="316.4,257.2 300.8,214 365.8,215.2 381.7,255.9 394.8,247.5 395,249.6 382,258.7 					"/>
					<polygon class="st8" points="382.8,255.1 366.9,214.4 302.2,213.2 300.8,214 365.8,215.2 381.7,255.9 					"/>
					<polygon class="st13" points="381.7,255.9 382,258.7 316.4,257.2 315.2,253.8 					"/>
					<path class="st8" d="M340.9,233.5c-0.4-0.1-0.9-0.2-1.4-0.1c0.7,0.7,1.1,1.7,0.9,2.7c-0.5,1.4-1.9,2.3-3.4,2.2
						c0.6,0.7,1.5,1.1,2.4,1.3c2.2,0.5,4.3-0.4,4.7-2.1S343.1,234.1,340.9,233.5z"/>
				</g>
			</g>
			<g id="table">
				
					<linearGradient id="SVGID_2_" gradientUnits="userSpaceOnUse" x1="205.1684" y1="304.4314" x2="311.6083" y2="412.4314" gradientTransform="matrix(1 0 0 1 0 -94)">
					<stop  offset="5.000000e-02" style="stop-color:#FAD05B"/>
					<stop  offset="1" style="stop-color:#F8A35A"/>
				</linearGradient>
				<rect x="175.2" y="257.4" class="st28" width="160.5" height="8.1"/>
				<rect x="253" y="265.5" class="st8" width="5.1" height="146.6"/>
				<polygon class="st8" points="255.5,406.7 225.5,412.1 255.5,412.1 285.5,412.1 				"/>
			</g>
			<g id="cups">
				
					<linearGradient id="SVGID_3_" gradientUnits="userSpaceOnUse" x1="185.1649" y1="362.9047" x2="216.4749" y2="331.8547" gradientTransform="matrix(1 0 0 1 0 -94)">
					<stop  offset="0" style="stop-color:#1252C3"/>
					<stop  offset="1" style="stop-color:#3F86FD"/>
				</linearGradient>
				<path class="st29" d="M214,251.7h-5.1c-2.5,0-4.4-2-4.4-4.5v-7c0-2.5,2-4.4,4.4-4.5h1.6v2h-1.6c-1.3,0-2.4,1.1-2.4,2.4l0,0v7
					c0,1.3,1.1,2.4,2.4,2.4l0,0h5.1V251.7z"/>
				<path class="st30" d="M209,237.8h1.6v-2H209c-0.2,0-0.4,0-0.6,0.1l0.3,2C208.7,237.8,208.8,237.8,209,237.8z"/>
				<polygon class="st30" points="214,249.7 210.1,249.7 210.3,251.7 214,251.7 				"/>
				
					<linearGradient id="SVGID_4_" gradientUnits="userSpaceOnUse" x1="188.5055" y1="366.2653" x2="219.8055" y2="335.2253" gradientTransform="matrix(1 0 0 1 0 -94)">
					<stop  offset="0" style="stop-color:#1252C3"/>
					<stop  offset="1" style="stop-color:#3F86FD"/>
				</linearGradient>
				<polygon class="st31" points="208.9,232.4 212.1,257.4 223.3,257.4 226.4,232.4 				"/>
				<polygon class="st8" points="209.9,239.9 210.4,244.1 225,244.1 225.5,239.9 				"/>
				<path class="st0" d="M219.3,226.3c2.3-2.1,2.8-5.5,1.2-8.1c-1.5-2.9-1.5-6.4,0-9.3c0,0-7,7.2-4,11S219.3,226.3,219.3,226.3z"/>
				<path class="st0" d="M214.9,216.1c0,0-0.8,3.1,0.6,5.1s2.2,4.7,1.5,6.3c-0.2-1.9-1.2-3.6-2.7-4.7
					C211.6,220.8,214.9,216.1,214.9,216.1z"/>
				
					<linearGradient id="SVGID_5_" gradientUnits="userSpaceOnUse" x1="357.9017" y1="362.9418" x2="389.2017" y2="331.8918" gradientTransform="matrix(-1 0 0 1 670.96 -94)">
					<stop  offset="0" style="stop-color:#1252C3"/>
					<stop  offset="1" style="stop-color:#3F86FD"/>
				</linearGradient>
				<path class="st32" d="M284.2,251.7h5.1c2.5,0,4.4-2,4.4-4.5v-7c0-2.5-2-4.4-4.4-4.4h-1.6v2h1.6c1.3,0,2.4,1.1,2.4,2.4l0,0v7
					c0,1.3-1.1,2.4-2.4,2.4l0,0h-5.1V251.7z"/>
				<path class="st30" d="M289.3,237.8h-1.6v-2h1.6c0.2,0,0.4,0,0.6,0.1l-0.3,2C289.6,237.8,289.4,237.8,289.3,237.8z"/>
				<polygon class="st30" points="284.2,249.7 288.2,249.7 287.9,251.7 284.2,251.7 				"/>
				
					<linearGradient id="SVGID_6_" gradientUnits="userSpaceOnUse" x1="361.201" y1="366.2709" x2="392.511" y2="335.2309" gradientTransform="matrix(-1 0 0 1 670.96 -94)">
					<stop  offset="0" style="stop-color:#1252C3"/>
					<stop  offset="1" style="stop-color:#3F86FD"/>
				</linearGradient>
				<polygon class="st33" points="289.3,232.4 286.2,257.4 275,257.4 271.8,232.4 				"/>
				<polygon class="st8" points="288.4,239.9 287.9,244.1 273.3,244.1 272.8,239.9 				"/>
				<path class="st0" d="M283,226.3c2.3-2.1,2.8-5.5,1.2-8.1c-1.5-2.9-1.5-6.4,0-9.3c0,0-7,7.2-4,11S283,226.3,283,226.3z"/>
				<path class="st0" d="M278.5,216.1c0,0-0.8,3.1,0.6,5.1s2.2,4.7,1.5,6.3c-0.2-1.9-1.2-3.5-2.7-4.6
					C275.3,220.8,278.5,216.1,278.5,216.1z"/>
			</g>
			<g id="liight">
				<g id="bulb">
					
						<linearGradient id="SVGID_7_" gradientUnits="userSpaceOnUse" x1="494.0756" y1="8.0864" x2="515.9756" y2="-19.3836" gradientTransform="matrix(-1 0 0 -1 774.44 54.27)">
						<stop  offset="0" style="stop-color:#F5995E"/>
						<stop  offset="0.29" style="stop-color:#F9AB60"/>
						<stop  offset="0.71" style="stop-color:#FDBF62"/>
						<stop  offset="1" style="stop-color:#FFC663"/>
					</linearGradient>
					<path class="st34" d="M255.1,67.8c0,5.9,4.8,10.7,10.7,10.7c5.9,0,10.7-4.8,10.7-10.7c0-1.1-0.2-2.3-0.5-3.3l0,0l-3.7-12.4h-13
						l-3.7,12.4l0,0C255.3,65.6,255.1,66.7,255.1,67.8z"/>
					<path class="st35" d="M272.7,52h-13.5c-0.4,0-0.7-0.3-0.7-0.7v-0.4c0-0.4,0.3-0.7,0.7-0.7h13.5c0.4,0,0.7,0.3,0.7,0.7v0.4
						C273.5,51.7,273.1,52,272.7,52z"/>
					<rect x="259.5" y="45" class="st35" width="12.8" height="5.2"/>
					<rect x="259.5" y="49.3" class="st8" width="12.8" height="0.8"/>
					<path class="st36" d="M268,52.1c0,0,0.1,19.2,1.6,19.3s4.5-4.8-1.9-6.5c-6.4-1.7-9.2,2.3-7.7,2.4c1.5,0.1,3-1.7,3.2-5.9
						s0.2-9.3,0.2-9.3"/>
				</g>
				<polygon class="st37" points="282.5,45 249,45 200.8,71 330.7,71 				"/>
				<rect x="248.1" y="43.1" class="st8" width="35.4" height="1.9"/>
				<rect x="265.2" class="st8" width="1" height="44"/>
			</g>
			<g id="plant_2">
				<path class="st7" d="M555.9,240.1c-2.9-10.5-23.8-0.5-35.4,20.1l-0.2,0.4c-2,3.6-5.1,9.3-6.2,13.4c-13.7,49.6,2,49.8,2.3,49.8
					l0,0c7.2-1.1,11.9-10.6,17.6-28.8c0.8-1.6,1.5-3.2,2.1-4.9l-8.4-0.7l-3.4-0.3l2.7-0.6l10.2-2.2c0.5-2.3,0.8-4.6,0.9-7
					c0.4-7.5,5.1-13.9,9.6-19.8l-6.7-4.9l8.6,2.4C553.9,251.3,557.5,245.8,555.9,240.1z"/>
				<path class="st38" d="M515.2,360.1c-0.5-70.9,25.8-117.3,39.2-122.6"/>
				<path class="st8" d="M516.3,280.4l-4.8,4.3l4.9-1.5c0.4,14.9-2.3,29-9.5,30.3c-9.6,1.7-14.9-23.8-15.3-41.8l6.8,1.8l-6.8-4.5
					c0-1.1,0.1-4.4,0.2-5.4c1-10.6,4.5-21.4,10.9-28.1c4.1,6.8,7.4,14.1,9.8,21.6C514.7,264.8,516,272.6,516.3,280.4z"/>
				<path class="st39" d="M491.8,263.7l20.7-6.5c-2.4-7.6-5.7-14.8-9.8-21.6C496.3,242.3,492.8,253.1,491.8,263.7z"/>
				<path class="st38" d="M503.9,239.3c2.8,29.8,3.6,99.5,1.9,120"/>
				<path class="st7" d="M491.8,263.7c3.3-6.4,8.7-9.3,14.5-11.4l-1.8-9.7l4.2,8.9c8.6-2.7,17.6-4.1,22-11.9c1-1.8,0.2-4.1-1.3-5.6
					c-1.6-1.5-3.6-2.7-5.7-3.5l-10.2,3.1l5.7-4.2C508.5,228.2,494.6,235,491.8,263.7z"/>
				
					<linearGradient id="SVGID_8_" gradientUnits="userSpaceOnUse" x1="465.9" y1="385.9822" x2="500.9673" y2="385.9822" gradientTransform="matrix(1 0 0 1 0 -94)">
					<stop  offset="0" style="stop-color:#117233"/>
					<stop  offset="1" style="stop-color:#17A350"/>
				</linearGradient>
				<path class="st40" d="M497.4,323.9c-5.5,2.2-14.6-9.6-21.7-25.2c-0.4-0.9-0.8-1.8-1.2-2.8c-0.8-1.8-1.5-3.6-2.2-5.5l4.4-0.7
					l-5.7-3c-3.1-9.2-5.1-18.7-5.1-26.9L487,264c5,8.2,9.1,19.7,11.5,30.4l-2.2,6.3l3-2.1C501.9,311.3,501.6,322.2,497.4,323.9z"/>
				<path class="st8" d="M497.4,323.9c-5.5,2.2-14.6-9.6-21.7-25.2c-0.4-0.9-0.8-1.8-1.2-2.8c-0.8-1.8-1.5-3.6-2.2-5.5l4.4-0.7
					l-5.7-3c-3.1-9.2-5.1-18.7-5.1-26.9L487,264c5,8.2,9.1,19.7,11.5,30.4l-2.2,6.3l3-2.1C501.9,311.3,501.6,322.2,497.4,323.9z"/>
				<path class="st38" d="M472.2,264.6c15.5,32.5,30.8,69.7,28.8,95.5"/>
				<path class="st7" d="M487,264.1c-3.3-0.4-6.5,0.3-9.3,2l-7.4-4l5.7,5.2c-1.5,1.2-2.8,2.6-3.8,4.2l-0.4,0.6
					c-1.7-1.3-4-2.9-4.2-3.1l2.7,5.3c-8.4,10.7-19.4,13.1-16.8,2.6c0.5-2.1,1-4.6,1.9-7.4l5.2-3.6l-4.3,0.7c0.2-0.6,0.4-1.1,0.7-1.6
					c2.6-4.2,7.2-6.6,12.1-6.3C475.2,259.1,484.1,260.2,487,264.1z"/>
				<path class="st41" d="M515.2,284.4c0.1,0.9,0.1,1.9,0.2,2.8"/>
				
					<linearGradient id="SVGID_9_" gradientUnits="userSpaceOnUse" x1="482.4802" y1="423.3499" x2="526.7302" y2="491.4899" gradientTransform="matrix(1 0 0 1 0 -94)">
					<stop  offset="5.000000e-02" style="stop-color:#FAD05B"/>
					<stop  offset="1" style="stop-color:#F8A35A"/>
				</linearGradient>
				<polygon class="st42" points="525.4,400.6 488.1,400.6 477.6,350.4 536.8,350.4 				"/>
				<polygon class="st8" points="479.6,360.1 481.9,371.1 532.1,371.1 534.6,360.1 				"/>
			</g>
		</g>
	</g>
</g>
</svg>
